<svg fill="#5651e5" xmlns="http://www.w3.org/2000/svg"  viewBox="0 0 30 30" width="30px" height="30px"><path d="M 9 4 C 6.2504839 4 4 6.2504839 4 9 A 1.0001 1.0001 0 1 0 6 9 C 6 7.3315161 7.3315161 6 9 6 C 9.8027043 6 10.901881 6.268482 11.974609 8.0214844 C 13.047337 9.7744868 14 13.105306 14 19 L 14 25 A 1.0001 1.0001 0 1 0 16 25 L 16 19 C 16 13.105306 16.952663 9.7744868 18.025391 8.0214844 C 19.098119 6.268482 20.197296 6 21 6 C 22.668484 6 24 7.3315161 24 9 A 1.0001 1.0001 0 1 0 26 9 C 26 6.2504839 23.749516 4 21 4 C 19.593704 4 17.693381 4.731518 16.318359 6.9785156 C 15.776775 7.863548 15.376437 9.185876 15 10.574219 C 14.623563 9.1858761 14.223225 7.863548 13.681641 6.9785156 C 12.306619 4.731518 10.406296 4 9 4 z"/></svg>