<?xml version="1.0"?><svg fill="#FA5252" xmlns="http://www.w3.org/2000/svg"  viewBox="0 0 30 30" width="90px" height="90px">    <path d="M 17.273438 2.9902344 A 1.0001 1.0001 0 0 0 16.585938 3.2929688 L 15.878906 4.0019531 C 14.733562 5.1487846 14.72199 7.0226292 15.835938 8.1894531 L 15.767578 8.1894531 C 13.428578 8.1884531 11 9.662 11 12 C 11 11.026 10.474 10 9.5 10 C 8.6289926 10 8.1447271 10.805194 8.046875 11.689453 A 1.0001 1.0001 0 0 0 8 12 C 8 12.56503 7.5650302 13 7 13 C 6.4349698 13 6 12.56503 6 12 A 1.0001 1.0001 0 0 0 4.984375 10.986328 A 1.0001 1.0001 0 0 0 4 12 C 4 13.64497 5.3550302 15 7 15 C 7.9920245 15 8.8723963 14.502012 9.4199219 13.75 L 4.8027344 21.289062 C 4.3152925 22.049931 4 22.804216 4 23.630859 C 4 24.560326 4.3169993 25.450795 4.9589844 26.072266 C 5.6009694 26.693736 6.5097794 27 7.5 27 C 8.3521363 27 9.0615932 26.675253 9.6171875 26.390625 C 10.172782 26.105997 10.580078 25.814453 10.580078 25.814453 A 1.0001 1.0001 0 1 0 9.4199219 24.185547 C 9.4199219 24.185547 9.1254838 24.394003 8.7050781 24.609375 C 8.2846725 24.824747 7.7438637 25 7.5 25 C 6.9012206 25 6.5603743 24.838795 6.3496094 24.634766 C 6.1388444 24.430736 6 24.137392 6 23.630859 C 6 23.176295 6.5363263 22.127548 7.7324219 20.771484 C 8.7772294 19.586943 10.290623 18.10981 12 16.412109 L 12 19 C 12 20.64497 13.35503 22 15 22 A 1.0001 1.0001 0 1 0 15 20 C 14.43497 20 14 19.56503 14 19 C 14 19 14.038 18 15 18 C 15.962 18 17 17.480859 17 16.505859 C 17 15.531859 16.442 15 15 15 C 15 15 18.097 14.531 19 13 C 19 14.64497 20.35503 16 22 16 L 23 16 A 1.0001 1.0001 0 1 0 23 14 L 22 14 C 21.43497 14 21 13.56503 21 13 C 21 12 21.000641 11.000203 20.681641 10.658203 C 20.681641 10.658203 21.630141 9.4147813 22.119141 9.9257812 C 22.794141 10.631781 23.609984 10.152109 24.208984 9.5371094 C 24.862984 8.8641094 26 7.0729219 26 6.0449219 C 26 4.2809219 22.098547 5.2044062 21.060547 5.6914062 C 20.602547 5.9064062 20.351516 6.5725625 20.353516 7.1015625 C 20.357516 7.7495625 19.306 8.306 19 8 C 18.694 7.694 18.748047 7.4084375 18.123047 6.8984375 C 17.621806 6.4897333 17.048889 6.5742759 17.007812 6.0546875 C 17.024342 5.8248946 17.111693 5.5972916 17.292969 5.4160156 A 1.0001 1.0001 0 0 0 17.292969 5.4140625 L 18 4.7070312 A 1.0001 1.0001 0 0 0 17.273438 2.9902344 z"/></svg>