<?xml version="1.0" encoding="utf-8"?>
<svg version="1.1" id="Layer_1" xmlns="http://www.w3.org/2000/svg" xmlns:xlink="http://www.w3.org/1999/xlink" x="0px" y="0px"
	 viewBox="0 0 2697.908 1394.501" enable-background="new 0 0 2697.908 1394.501" xml:space="preserve">
<g>
	<path d="M1027.932,374.306c190.554-219.418,398.298-342.184,711.303-286.844c112.787,19.941,217.373,67.646,254.132,93.902
		c1.016,0.702,61.707,39.769,78.032,53.765c6.891,5.908,16.007,4.182,21.195-3.199c10.199-14.511,11.577-11.705,16.626-17.385
		c10.177-11.45,22.183-20.796,34.356-29.949c37.874-28.475,38.764-20.745,120.128-28.51c63.944-6.103,241.364-40.39,277.407-93.003
		c8.5-12.406,25.733-16.982,39.273-10.465c17.46,8.404,11.059,26.651,5.279,31.126c-34.592,26.782-5.471,6.69-48.636,33.778
		c-9.292,5.832-8.631,18.862,4.716,13.451c12.725-5.158,26.127-7.042,39.662-8.383c6.53-0.647,19.547,5.21,24.483,18.412
		c4.478,11.976,2.789,30.814-8.769,36.273c-2.583,1.22-8.448,8.477-22.039,4.286c-69.681-21.489-53.45,16.956-44.313,17.305
		c1.009,0.038,31.122,6.718,56.079,5.938c18.96-0.592,37.915,17.099,27.399,37.645c-14.935,29.18-46.645,4.037-70.718,1.651
		c-6.531-0.647-23.939-11.44-28.305-0.86c-13.564,32.868,30.348,34.679,17.022,60.322c-2.079,4.001-3.722,8.23-7.043,11.321
		c-13.687,12.738-36.469,4.191-44.441-12.113c-11.364-23.242-27.5-39.321-80.48-52.27c-52.308-12.784-116.105-30.276-173.483,24.11
		c-21.79,20.654-34.474,43.687-39.328,62.496c-3.815,14.803,22.107,42.332,35.524,45.592c18.244,4.432,35.281,7.114,52.95,0.255
		c25.729-9.988,64.361-40.978,135.834-38.681c85.045,2.733,127.709,61.6,142.448,74.845c5.983,5.376,6.901,11.111,54.012,42.756
		c4.528,3.042,8.159,7.526,10.486,12.374c1.349,2.812,3.947,4.53,4.903,7.253c2.177,6.195,4.832,12.237,5.22,18.998
		c3.117,54.316-56.587,71.714-80.177,83.228c-40.367,19.702-50.116,26.363-66.725,36.081
		c-53.462,31.279-141.467,36.386-201.949-6.227c0,0-39.257-26.669-40.694-27.622c-21.371-14.168-23.503-25.85-54.813-24.542
		c-4.158,0.174-31.274,3.517-34.271,5.2c-17.763,9.976,30.819,188.11,217.876,193.268c19.15,0.528,53.672,3.386,65.038,1.522
		c17.739-2.911,39.411,11.139,28.888,29.74c-3.933,6.953-9.584,12.744-18.448,13.418c-10.457,0.796-40.609,12.195-42.867,12.538
		c-2.667,0.405-4.884,2.458-5.259,5.321c-0.338,2.582,3.322,7.669,5.589,8.345c69.669,20.78,89.781,12.552,121.199,30.592
		c22.532,12.937,3.843,51.369-27.745,42.236c-1.067-0.309-87.812-32.065-104.532-30.698c-32.283,2.64,41.065,58.407,46.591,81.86
		c3.796,16.113-18.821,29.264-38.823,20.013c-20.079-9.287-15.391-17.545-31.617-36.547c-10.29-12.051-20.509-24.16-30.383-36.561
		c-16.242-20.398-38.936,4.565-43.991,34.757c-2.849,17.013-32.191,21.778-40.674-3.87
		c-22.921-69.306,77.131-52.139-128.839-177.311c-6.01-3.653-28.458-14.029-50.496-31.087
		c-53.75-41.604-65.139-94.678-78.861-145.046c-6.929-25.434,9.717-18.444-54.019-43.92
		c-79.881-31.929-168.596-80.846-329.341-71.657c-102.867,5.881-218.041,36.94-307.321,99.586
		c-8.126,5.703-35.579,24.801-41.6,33.198c2.331,1.583,4.665,0.979,6.797,1.01c79.011,1.152,117.037,73.321,95.399,130.475
		c-6.797,17.953-16.456,20.216-39.135,53.09c-39.758,57.628-15.691,27.55-68.635,85.559c-8.857,9.704-37.181,33.236-13.279,43.502
		c10.664,4.58,52.91,2.817,87.639-18.494c36.236-22.235,49.498-34.595,62.689-23.929c9.748,7.882,10.357,22.91-0.19,30.928
		c-36.338,27.623-27.307,47.476-11.743,45.97c66.458-6.429,75.855-29.065,112.952-20.391c28.084,6.566,25.304,43.011,0.726,48.823
		c-14.864,3.514-48.584,2.028-49.587,2.023c-12.042-0.06-70.575,5.827-58.506,20.713c28.765,35.478,89.719,26.691,83.049,63.573
		c-1.298,7.175-6.068,12.064-12.828,14.733c-15.712,6.203-23.953-2.6-60.39-28.501c-18.116-12.878-54.937-38.298-53.579-16.135
		c0.813,13.269,4.433,25.299,12.808,36.128c12.903,16.683-1.542,35.07-21.41,31.795c-19.194-3.165-32.295-27.323-42.474-43.777
		c-30.882-49.924-89.805-49.714-141.689-53.223c-19.124-1.293-33.656,1.655-49.083-19.409c-9.686-13.225-10.078-30.935-3.219-41.599
		c27.578-42.879,50.367-62.564,61.495-85.908c9.788-20.53,3.241-18.105-0.973-19.955c-8.898-3.906-14.023,4.126-21.163,7.911
		c-20.271,10.746-44.834,8.476-66.12,16.615c-92.528,35.381-90.599,365.459-449.906,465.904
		c-43.794,12.243-120.996,23.7-171.681,20.47c-43.407-2.766-136.166-37.125-171.913-57.36
		c-38.433-21.755-71.011-48.216-101.437-79.866c-14.227-14.799-51.731-49.033-86.528-136.447
		c-19.498-48.982-27.042-97.009-10.455-184.688c1.609-8.504,13.303-26.889,22.892-27.511c19.536-1.267,19.57,37.16,18.995,49.009
		c-3.401,70.023,15.795,102.546,32.249,141.539c53.715,127.286,200.33,188.693,282.169,178.371
		c159.599-20.13,259.817-103.564,327.539-234.961c36.087-70.016,18.041-68.651,54.84-138.054
		c3.096-5.838,14.568-19.476,13.434-25.765c-0.563-3.118-6.2-7.725-7.858-10.775c-11.448-21.071-10.699-53.061,18.798-85.891
		c15.08-16.783,22.641-14.341,24.242-22.482c5.367-27.288,25.974-63.592,21.28-68.995c-3.466-3.99-6.511-8.345-9.945-12.365
		c-1.965-2.299-4.817-3.439-5.971-6.909c-14.114-42.425-19.839-136.29-36.043-137.614c-20.076-1.64-15.074,43.195-124.944,198.438
		c-3.926,5.548-4.031,7.73-8.791,11.832c-19.5,16.802-42.033,68.072-92.807,64.229c-26.425-2-38.066-21.797-67.391-87.896
		c-13.291-29.958-19.288-48.839-53.151-55.801c-12.011-2.469-24.221-3.794-36.111-6.751c-36.967-9.195-39.005-62.825,6.819-45.794
		c14.144,5.256,33.975,4.139,29.455-12.441c-2.06-7.556-4.44-12.294-37.6-43.048c-51.406-47.677-21.624-87.944,8.09-65.567
		c14.652,11.033,16.598,46.503,49.737,69.828c6.274,4.416,15.753-3.443,13.462-11.504c-1.972-6.939-8.72-17.242-13.536-43.638
		c-4.371-23.953-13.764-39.274-6.438-53.825c17.855-35.464,62.719-11.665,54.318,17.753c-4.933,17.274-4.141,58.344-2.965,76.555
		c0.321,4.971,5.188,10.705,9.502,11.261c10.535,1.359,15.081-9.186,17.699-12.939c9.613-13.783,8.643-30.59,17.361-37.489
		c13.26-10.494,30.977,1.457,31.772,18.971c1.541,33.934-16.904,48.358-17.06,64.266c-0.137,13.976-0.073,27.954-0.745,41.921
		c-0.427,8.89,4.55,14.242,13.628,14.121c11.188-0.15,15.44-6.546,22.96-20.632c8.755-16.398,14.569-33.916,19.95-51.641
		c7.406-24.393,17.961-47.187,26.641-70.961c13.749-37.657,13.028-47.82,42.127-100.166c6.002-10.797,21.819-44.344,34.207-66.37
		c7.491-13.319,32.86-43.86,48.839-67.828c14.666-21.999,55.085-31.569,82.373-25.491c20.962,4.669,37.95,18.686,52.248,34.101
		c25.936,27.962,57.743,119.301,66.893,130.908C1022.094,363.57,1026.274,367.813,1027.932,374.306z"/>
</g>
</svg>
